<svg width="55" height="53" viewBox="0 0 55 53" fill="none" xmlns="http://www.w3.org/2000/svg">
<circle opacity="0.3" cx="35" cy="33" r="20" fill="#473BF0"/>
<path fill-rule="evenodd" clip-rule="evenodd" d="M31 1C37.627 1 43 9.059 43 19V41H37V19C37 18.121 36.949 17.26 36.868 16.414C35.3612 18.0607 33.2321 18.999 31 19C27.6863 19 25 16.3137 25 13V7C25 5.4087 25.6321 3.88258 26.7574 2.75736C27.8826 1.63214 29.4087 1 31 1Z" stroke="#161C2D" stroke-width="2" stroke-linecap="round" stroke-linejoin="round"/>
<path fill-rule="evenodd" clip-rule="evenodd" d="M13 1C6.373 1 1 9.059 1 19V41H7V19C7 18.121 7.051 17.26 7.132 16.414C8.63885 18.0607 10.7679 18.999 13 19C16.3137 19 19 16.3137 19 13V7C19 3.68629 16.3137 1 13 1Z" stroke="#161C2D" stroke-width="2" stroke-linecap="round" stroke-linejoin="round"/>
<path d="M13 8V12" stroke="#161C2D" stroke-width="2" stroke-linecap="round" stroke-linejoin="round"/>
<path d="M31 8V12" stroke="#161C2D" stroke-width="2" stroke-linecap="round" stroke-linejoin="round"/>
</svg>
